<?xml version="1.0" encoding="utf-8"?>
<!-- Generator: Adobe Illustrator 16.0.3, SVG Export Plug-In . SVG Version: 6.00 Build 0)  -->
<!DOCTYPE svg PUBLIC "-//W3C//DTD SVG 1.1//EN" "http://www.w3.org/Graphics/SVG/1.1/DTD/svg11.dtd">
<svg version="1.1" id="Layer_1" xmlns="http://www.w3.org/2000/svg" xmlns:xlink="http://www.w3.org/1999/xlink" x="0px" y="0px"
	 width="165.861px" height="75.452px" viewBox="0 0 165.861 75.452" enable-background="new 0 0 165.861 75.452"
	 xml:space="preserve">
<g>
	<g>
		<path fill="#0079C1" d="M0,31.964v-0.162C0,19.836,9.307,9.928,21.874,9.928c12.564,0,21.798,9.747,21.798,21.714v0.16
			c0,11.892-9.311,21.802-21.952,21.802C9.232,53.604,0,43.85,0,31.964z M34.518,31.954v-0.152c0-6.935-5.292-12.682-12.8-12.682
			c-7.667,0-12.568,5.671-12.568,12.534v0.148c0,6.863,5.291,12.688,12.724,12.688C29.619,44.489,34.518,38.739,34.518,31.954z"/>
		<path fill="#D8CFC6" d="M16.808,25.293c3.593-2.769,8.769-2.112,11.537,1.487c2.781,3.597,2.116,8.766-1.489,11.544
			c-3.591,2.773-8.756,2.112-11.532-1.482C12.542,33.245,13.208,28.077,16.808,25.293z"/>
		<path fill="#D8CFC6" d="M47.241,31.869V31.75c0-4.552,3.776-8.168,8.195-8.168c4.474,0,8.258,3.616,8.258,8.168v0.118
			c0,4.55-3.719,8.171-8.258,8.171C50.958,40.04,47.241,36.419,47.241,31.869z"/>
		<path fill="#0079C1" d="M93.671,52.205v-5.046c-2.792,3.337-7.061,5.901-13.265,5.901c-7.757,0-14.583-4.425-14.583-12.646v-0.156
			c0-9.077,7.055-13.419,16.601-13.419c4.965,0,8.142,0.697,11.324,1.707v-0.776c0-5.659-3.568-8.764-10.084-8.764
			c-4.576,0-7.992,1.007-11.713,2.558l-2.559-7.521c4.496-2.016,8.918-3.417,15.59-3.417c12.102,0,17.999,6.363,17.999,17.299v24.28
			H93.671z M93.902,35.063c-2.405-0.933-5.736-1.631-9.385-1.631c-5.896,0-9.386,2.404-9.386,6.36v0.155
			c0,3.879,3.49,6.054,7.907,6.054c6.211,0,10.863-3.496,10.863-8.614V35.063z"/>
		<path fill="#D8CFC6" d="M107.279,31.869V31.75c0-4.552,3.776-8.168,8.196-8.168c4.481,0,8.261,3.616,8.261,8.168v0.118
			c0,4.55-3.721,8.171-8.261,8.171C111.001,40.04,107.279,36.419,107.279,31.869z"/>
		<path fill="#0079C1" d="M129.674,40.88V19.315h-5.197v-8.069h5.197V0h9.382v11.247h11.013v8.069h-11.013v20.088
			c0,3.649,1.862,5.12,5.041,5.12c2.098,0,3.956-0.466,5.821-1.396v7.684c-2.325,1.314-4.967,2.089-8.456,2.089
			C134.561,52.9,129.674,49.878,129.674,40.88z"/>
		<path fill="#D8CFC6" d="M149.403,31.869V31.75c0-4.552,3.783-8.168,8.2-8.168c4.472,0,8.258,3.616,8.258,8.168v0.118
			c0,4.55-3.724,8.171-8.258,8.171C153.125,40.04,149.403,36.419,149.403,31.869z"/>
		<g>
			<g>
				<path fill="#0079C1" d="M155.343,13.691h-1.116v-0.566h2.799v0.566h-1.116v2.971h-0.566V13.691z M157.739,13.125h0.901
					l1.056,2.687l1.057-2.687h0.875v3.537h-0.566v-2.971h-0.018l-1.167,2.971h-0.387l-1.167-2.971h-0.019v2.971h-0.565V13.125z"/>
			</g>
		</g>
	</g>
	<g>
		<path fill="#0079C1" d="M57.164,61.65h2.25v5.282c0.633-0.93,1.544-1.729,3.069-1.729c2.213,0,3.497,1.487,3.497,3.775v6.25H63.73
			v-5.58c0-1.525-0.763-2.399-2.102-2.399c-1.302,0-2.214,0.911-2.214,2.437v5.543h-2.25V61.65z"/>
		<path fill="#0079C1" d="M67.805,70.374v-0.037c0-2.809,2.232-5.134,5.246-5.134s5.227,2.287,5.227,5.097v0.037
			c0,2.79-2.232,5.115-5.264,5.115C70.019,75.452,67.805,73.164,67.805,70.374z M76.026,70.374v-0.037
			c0-1.73-1.246-3.162-3.013-3.162c-1.804,0-2.958,1.413-2.958,3.125v0.037c0,1.711,1.246,3.162,2.995,3.162
			C74.873,73.499,76.026,72.066,76.026,70.374z"/>
		<path fill="#0079C1" d="M80.213,65.407h2.25v1.488c0.633-0.874,1.488-1.692,2.995-1.692c1.413,0,2.399,0.688,2.92,1.729
			c0.8-1.042,1.842-1.729,3.33-1.729c2.139,0,3.44,1.357,3.44,3.757v6.269h-2.25v-5.58c0-1.563-0.726-2.399-1.99-2.399
			c-1.229,0-2.103,0.855-2.103,2.437v5.543h-2.25V69.63c0-1.525-0.744-2.381-1.991-2.381c-1.246,0-2.102,0.93-2.102,2.455v5.524
			h-2.25V65.407z"/>
		<path fill="#0079C1" d="M96.993,70.355v-0.037c0-2.809,1.99-5.115,4.799-5.115c3.125,0,4.706,2.455,4.706,5.282
			c0,0.205-0.019,0.409-0.037,0.633h-7.217c0.241,1.6,1.376,2.492,2.827,2.492c1.098,0,1.879-0.409,2.66-1.172l1.32,1.172
			c-0.93,1.116-2.214,1.842-4.018,1.842C99.188,75.452,96.993,73.387,96.993,70.355z M104.266,69.63
			c-0.149-1.451-1.005-2.586-2.493-2.586c-1.376,0-2.344,1.061-2.548,2.586H104.266z"/>
		<path fill="#0079C1" d="M113.103,70.374v-0.037c0-2.809,2.232-5.134,5.245-5.134c3.014,0,5.228,2.287,5.228,5.097v0.037
			c0,2.79-2.232,5.115-5.265,5.115C115.317,75.452,113.103,73.164,113.103,70.374z M121.325,70.374v-0.037
			c0-1.73-1.246-3.162-3.014-3.162c-1.804,0-2.957,1.413-2.957,3.125v0.037c0,1.711,1.246,3.162,2.994,3.162
			C120.171,73.499,121.325,72.066,121.325,70.374z"/>
		<path fill="#0079C1" d="M126.014,67.342h-1.246v-1.879h1.246v-0.706c0-1.098,0.279-1.916,0.8-2.438
			c0.521-0.521,1.246-0.78,2.213-0.78c0.781,0,1.321,0.111,1.823,0.26v1.897c-0.446-0.148-0.837-0.242-1.32-0.242
			c-0.855,0-1.303,0.466-1.303,1.488v0.539h2.604v1.86h-2.566v7.887h-2.251V67.342z"/>
		<path fill="#0079C1" d="M138.442,72.513v-5.171h-1.246v-1.935h1.246V62.71h2.25v2.697h2.642v1.935h-2.642v4.817
			c0,0.874,0.447,1.228,1.209,1.228c0.503,0,0.949-0.111,1.396-0.334v1.841c-0.558,0.316-1.19,0.502-2.027,0.502
			C139.614,75.396,138.442,74.671,138.442,72.513z"/>
		<path fill="#0079C1" d="M151.258,75.229V74.02c-0.67,0.8-1.693,1.414-3.181,1.414c-1.86,0-3.497-1.061-3.497-3.032v-0.037
			c0-2.177,1.692-3.218,3.98-3.218c1.19,0,1.953,0.167,2.716,0.409v-0.187c0-1.357-0.855-2.102-2.418-2.102
			c-1.098,0-1.916,0.242-2.809,0.613l-0.614-1.804c1.079-0.483,2.139-0.818,3.738-0.818c2.902,0,4.315,1.525,4.315,4.147v5.822
			H151.258z M151.314,71.118c-0.577-0.224-1.377-0.391-2.251-0.391c-1.413,0-2.251,0.576-2.251,1.524v0.038
			c0,0.93,0.838,1.45,1.897,1.45c1.488,0,2.604-0.837,2.604-2.064V71.118z"/>
		<path fill="#0079C1" d="M155.277,70.374v-0.037c0-2.809,2.232-5.134,5.245-5.134c3.014,0,5.228,2.287,5.228,5.097v0.037
			c0,2.79-2.232,5.115-5.265,5.115C157.491,75.452,155.277,73.164,155.277,70.374z M163.499,70.374v-0.037
			c0-1.73-1.246-3.162-3.014-3.162c-1.804,0-2.957,1.413-2.957,3.125v0.037c0,1.711,1.246,3.162,2.994,3.162
			C162.345,73.499,163.499,72.066,163.499,70.374z"/>
	</g>
</g>
</svg>
